# xmcd
#
# Track frame offsets:
#	150
#	11685
#	27654
#	47189
#	67603
#	88632
#	114839
#	129594
#	146941
#	165072
#	187158
#	205383
#	229316
#	248543
#
# Disc length: 3507 seconds
#
# Revision: 1
# Processed by: cddbd v1.5.1PL0 Copyright (c) Steve Scherf et al.
# Submitted via: audiograbber 1.83.01
#
DISCID=bc0db10e
DTITLE=Blues Treat - Hidden Dips and Rumble Strips
DYEAR=2005
DGENRE=Blues
TTITLE0=1. Hidden Dips and Rumble Strips
TTITLE1=2. Don't Telephone
TTITLE2=3. You Know Where My Oas'is
TTITLE3=4. Howlin' Bayou Man
TTITLE4=5. Pawnshop Blues
TTITLE5=6. Tired Woman
TTITLE6=7. The Napier Dome
TTITLE7=8. Don't Haka At My Hangi
TTITLE8=9. Paddy's Kiss
TTITLE9=10. The Devil In You
TTITLE10=11. Bow-legged Joe
TTITLE11=12. Mickey's Hicky
TTITLE12=13. The Breeze
TTITLE13=14. Sometimes
EXTD=
EXTT0=
EXTT1=
EXTT2=
EXTT3=
EXTT4=
EXTT5=
EXTT6=
EXTT7=
EXTT8=
EXTT9=
EXTT10=
EXTT11=
EXTT12=
EXTT13=
PLAYORDER=
